
<svg width="296px" height="302px" viewBox="98 0 296 302" version="1.1" xmlns="http://www.w3.org/2000/svg" xmlns:xlink="http://www.w3.org/1999/xlink">
    <!-- Generator: Sketch 39.1 (31720) - http://www.bohemiancoding.com/sketch -->
    <desc>Created with Sketch.</desc>
    <defs></defs>
    <g id="illustration" stroke="none" stroke-width="1" fill="none" fill-rule="evenodd" transform="translate(98.000000, 0.000000)">
        <path d="M183.768276,100.011654 C181.654229,99.5574442 179.994652,97.7508123 179.994652,95.4797637 C179.994652,93.218922 181.654229,91.4071866 183.768276,90.9580804 L251.402443,90.804976 C260.011821,90.804976 267.094387,83.8744501 267.094387,75.2699828 C267.094387,66.6706189 260.011821,59.7400931 251.402443,59.7400931 L169.883995,59.7400931 C168.224417,59.7400931 166.866117,58.3825674 166.866117,56.7239364 C166.866117,55.0550984 168.224417,53.6975727 169.883995,53.6975727 L205.199805,53.6975727 C210.643219,53.6975727 214.866206,49.4769947 214.866206,44.2050999 C214.866206,38.7647901 210.643219,34.5493156 205.199805,34.5493156 L75.9825445,34.5493156 C70.692322,34.5493156 66.4744419,38.7647901 66.4744419,44.2050999 C66.4744419,49.4769947 70.692322,53.6975727 75.9825445,53.6975727 L117.196238,53.6975727 C120.663478,53.6975727 123.380079,56.5759354 123.380079,60.0411984 C123.380079,63.3533569 120.663478,66.2164092 117.196238,66.2164092 L34.9220431,66.2164092 C15.9007313,66.2164092 0.493724112,81.6034015 0.493724112,100.613865 C0.493724112,119.614121 15.9007313,134.99601 34.9220431,134.99601 L82.4676629,134.99601 L78.3978682,181.008985 C74.0114771,176.941512 68.2821048,174.517359 61.7867736,174.517359 C48.5050469,174.517359 37.6335375,185.229563 37.6335375,198.651716 C37.6335375,212.078972 48.5050469,222.939177 61.7867736,222.939177 C71.2948763,222.939177 97.4191799,223.393387 97.4191799,223.393387 L145.419269,223.694492 C152.363962,223.694492 158.108654,217.968388 158.108654,211.022551 C158.108654,210.119235 157.955462,209.210816 157.654185,208.3075 L247.618607,208.3075 C263.177784,208.3075 275.703765,195.788664 275.703765,180.25367 C275.703765,164.871782 263.177784,152.352945 247.618607,152.352945 L226.937717,152.352945 C223.623669,152.352945 220.907068,149.637894 220.907068,146.310425 C220.907068,142.998266 223.623669,140.436319 226.937717,140.436319 L275.703765,140.436319 C286.871445,140.436319 295.7821,131.377642 295.7821,120.216331 C295.7821,109.213228 286.871445,100.011654 275.703765,100.011654 L183.768276,100.011654 Z" id="Fill-2" fill="#001F50"></path>
        <path d="M122.17497,90.3558697 C122.17497,77.5308244 132.740096,67.1197252 145.567354,67.1197252 C158.409931,67.1197252 168.975057,77.5308244 168.975057,90.3558697 C168.975057,103.323812 158.409931,113.734912 145.567354,113.734912 C132.740096,113.734912 122.17497,103.323812 122.17497,90.3558697 L122.17497,90.3558697 Z" id="Fill-3" fill="#00D8CC"></path>
        <path d="M68.8846591,95.3266593 C68.8846591,94.122238 69.7884905,93.218922 70.9935991,93.218922 C72.0506224,93.218922 73.1076456,94.122238 73.1076456,95.3266593 C73.1076456,96.3932866 72.0506224,97.449707 70.9935991,97.449707 C69.7884905,97.449707 68.8846591,96.3932866 68.8846591,95.3266593 L68.8846591,95.3266593 Z" id="Fill-4" fill="#FFFFFF"></path>
        <path d="M29.9330977,115.092437 C29.9330977,113.888016 30.8369292,112.9847 32.0420378,112.9847 C33.2522528,112.9847 34.166297,113.888016 34.166297,115.092437 C34.166297,116.296859 33.2522528,117.200175 32.0420378,117.200175 C30.8369292,117.200175 29.9330977,116.296859 29.9330977,115.092437 L29.9330977,115.092437 Z" id="Fill-5" fill="#FFFFFF"></path>
        <path d="M150.709491,43.7508901 C150.709491,42.6842628 151.761408,41.6278424 152.818431,41.6278424 C154.02354,41.6278424 154.927371,42.6842628 154.927371,43.7508901 C154.927371,44.9553114 154.02354,45.8637309 152.818431,45.8637309 C151.761408,45.8637309 150.709491,44.9553114 150.709491,43.7508901 L150.709491,43.7508901 Z" id="Fill-6" fill="#FFFFFF"></path>
        <path d="M236.149649,74.2186659 C236.149649,71.6567189 238.110504,69.5438782 240.684126,69.5438782 C243.247535,69.5438782 245.361581,71.6567189 245.361581,74.2186659 C245.361581,76.7806129 243.247535,78.8883501 240.684126,78.8883501 C238.110504,78.8883501 236.149649,76.7806129 236.149649,74.2186659 L236.149649,74.2186659 Z" id="Fill-7" fill="#FFFFFF"></path>
        <path d="M188.302752,148.872372 C188.302752,147.66795 189.359775,146.764634 190.411692,146.764634 C191.616801,146.764634 192.525739,147.66795 192.525739,148.872372 C192.525739,150.092103 191.616801,150.995419 190.411692,150.995419 C189.359775,150.995419 188.302752,150.092103 188.302752,148.872372 L188.302752,148.872372 Z" id="Fill-8" fill="#FFFFFF"></path>
        <path d="M249.59478,119.762122 C249.59478,118.858806 250.34542,118.108594 251.254358,118.108594 C252.158189,118.108594 252.908829,118.858806 252.908829,119.762122 C252.908829,120.670541 252.158189,121.420753 251.254358,121.420753 C250.34542,121.420753 249.59478,120.670541 249.59478,119.762122 L249.59478,119.762122 Z" id="Fill-9" fill="#FFFFFF"></path>
        <path d="M247.470521,195.788664 C247.470521,194.584242 248.374353,193.680926 249.59478,193.680926 C250.799889,193.680926 251.703721,194.584242 251.703721,195.788664 C251.703721,196.845084 250.799889,197.896401 249.59478,197.896401 C248.374353,197.896401 247.470521,196.845084 247.470521,195.788664 L247.470521,195.788664 Z" id="Fill-10" fill="#FFFFFF"></path>
        <path d="M220.457705,166.979519 C220.457705,165.473992 221.810899,164.116467 223.470477,164.116467 C224.976863,164.116467 226.335163,165.473992 226.335163,166.979519 C226.335163,168.63815 224.976863,169.995676 223.470477,169.995676 C221.810899,169.995676 220.457705,168.63815 220.457705,166.979519 L220.457705,166.979519 Z" id="Fill-11" fill="#FFFFFF"></path>
        <path d="M35.376512,82.6700288 C35.376512,80.9960874 36.729706,79.6436652 38.3892835,79.6436652 C40.0488611,79.6436652 41.4071615,80.9960874 41.4071615,82.6700288 C41.4071615,84.3286598 40.0488611,85.5330811 38.3892835,85.5330811 C36.729706,85.5330811 35.376512,84.3286598 35.376512,82.6700288 L35.376512,82.6700288 Z" id="Fill-12" fill="#FFFFFF"></path>
        <path d="M108.137498,114.337122 C108.137498,113.734912 108.438775,113.433806 108.893244,113.433806 C109.342606,113.433806 109.797075,113.734912 109.797075,114.337122 C109.797075,114.791332 109.342606,115.092437 108.893244,115.092437 C108.438775,115.092437 108.137498,114.791332 108.137498,114.337122 L108.137498,114.337122 Z" id="Fill-13" fill="#FFFFFF"></path>
        <path d="M159.768231,182.366511 C159.768231,178.595039 162.934195,175.420675 166.866117,175.420675 C170.634634,175.420675 173.800598,178.595039 173.800598,182.366511 C173.800598,186.28088 170.634634,189.460348 166.866117,189.460348 C162.934195,189.460348 159.768231,186.28088 159.768231,182.366511 L159.768231,182.366511 Z" id="Fill-14" fill="#FFFFFF"></path>
        <polygon id="Fill-15" fill="#00BCF2" points="88.5136315 148.571266 91.2251259 155.215997 214.11046 117.200175 206.256828 97.449707"></polygon>
        <polygon id="Fill-16" fill="#00BCF2" points="197.198088 93.5200273 210.18875 126.258852 223.322391 121.119647 210.18875 88.3961334"></polygon>
        <path d="M97.2710945,214.635815 L97.4191799,215.855547 L97.2710945,214.635815 L97.4191799,214.635815 L98.3230114,214.635815 C99.0787575,214.635815 100.283866,214.487814 101.642166,214.33471 C104.654938,214.033605 108.740052,213.283393 113.264316,211.925867 C122.323056,209.062815 132.586905,203.785817 139.087342,193.982032 C143.458414,187.337301 146.63459,178.447038 146.63459,165.473992 C146.63459,160.487892 146.169908,154.761788 144.9648,148.423265 L162.934195,145.106003 C164.292495,152.500946 164.895049,159.283471 164.895049,165.473992 C165.043135,181.458092 160.820148,194.283137 154.324817,204.092026 C147.691613,213.732499 139.087342,220.224126 130.779242,224.444704 C114.020062,232.896067 98.3230114,232.896067 97.5723717,232.896067 L97.2710945,214.635815 L97.2710945,214.635815 Z" id="Fill-17" fill="#00BCF2"></path>
        <path d="M162.934195,145.106003 L144.9648,148.423265 C146.169908,154.761788 146.63459,160.487892 146.63459,165.473992 L146.63459,165.473992 L146.63459,165.473992 C146.63459,178.447038 143.458414,187.337301 139.087342,193.982032 C133.342651,202.581395 124.585188,207.858394 116.445598,210.869447 C116.894961,212.078972 117.196238,213.732499 117.196238,215.554442 L117.196238,229.731909 C121.419224,228.512178 125.953701,226.85865 130.779242,224.444704 C139.087342,220.224126 147.691613,213.732499 154.324817,204.092026 C160.820148,194.431138 164.895049,181.611196 164.895049,165.775098 L164.895049,165.473992 C164.895049,159.283471 164.292495,152.500946 162.934195,145.106003 L162.934195,145.106003 Z" id="Fill-18" fill="#00A9D9"></path>
        <path d="M207.313851,119.313015 L199.02107,121.874962 L199.02107,122.022963 L207.313851,119.313015 L207.313851,119.313015 L207.313851,119.313015 Z M199.77171,100.312759 L191.616801,103.778022 L199.77171,100.312759 L199.77171,100.312759 L199.77171,100.312759 Z" id="Fill-19" fill="#001B44"></path>
        <polygon id="Fill-20" fill="#00A0CE" points="199.77171 100.312759 191.616801 103.778022 199.02107 121.874962 207.313851 119.313015 200.37937 101.517181"></polygon>
        <polygon id="Fill-21" fill="#00A0CE" points="200.37937 101.517181 207.313851 119.313015 207.313851 119.313015 207.313851 119.313015"></polygon>
        <path d="M161.274617,135.761532 L161.274617,135.761532 C161.274617,135.761532 161.126532,135.59822 161.126532,135.450219 C160.217594,130.474326 155.535032,127.310169 150.556299,128.213485 C145.567354,129.121904 142.253305,133.791588 143.305222,138.777688 L143.305222,139.226794 L143.305222,139.226794 L145.117992,148.423265 L162.934195,145.106003 L161.274617,135.761532 L161.274617,135.761532 Z" id="Fill-22" fill="#FBCF30"></path>
        <path d="M45.3390836,239.525487 C45.3390836,219.923021 61.1842193,204.092026 80.8080854,204.092026 C100.437058,204.092026 116.292406,219.923021 116.292406,239.525487 C116.292406,259.143265 100.437058,274.979363 80.8080854,274.979363 C61.1842193,274.979363 45.3390836,259.143265 45.3390836,239.525487 L45.3390836,239.525487 Z" id="Fill-23" fill="#EE2832"></path>
        <path d="M238.723271,200.157242 C256.227984,217.662179 256.227984,246.022217 238.723271,263.664948 C221.208345,281.154574 192.673824,281.154574 175.158898,263.664948 L238.723271,200.157242 L238.723271,200.157242 Z" id="Fill-24" fill="#0072C6"></path>
        <path d="M170.03208,231.84475 C170.03208,211.471658 186.47977,194.885348 206.859382,194.885348 C227.392186,194.885348 243.850089,211.471658 243.850089,231.84475 C243.850089,252.197428 227.392186,268.799049 206.859382,268.799049 C186.47977,268.799049 170.03208,252.197428 170.03208,231.84475 L170.03208,231.84475 Z" id="Fill-25" fill="#00D8CC"></path>
        <path d="M212.001519,279.649047 C202.033841,279.649047 193.878933,284.482043 193.878933,290.514356 L230.119,290.514356 C230.119,284.482043 221.964091,279.649047 212.001519,279.649047 L212.001519,279.649047 Z" id="Fill-26" fill="#0072C6"></path>
        <path d="M178.488266,208.3075 C173.351235,214.487814 170.185272,222.484968 170.03208,231.089435 L170.03208,231.089435 L170.03208,231.237436 L170.03208,231.237436 L170.03208,231.237436 L170.03208,231.39054 L170.03208,231.39054 C170.03208,231.39054 170.03208,231.39054 170.03208,231.538541 L170.03208,231.538541 L170.03208,231.538541 L170.03208,231.691646 L170.03208,231.691646 L170.03208,231.691646 L170.03208,231.84475 C170.03208,252.197428 186.47977,268.799049 206.859382,268.799049 L207.012574,268.799049 L207.160659,268.799049 L207.160659,268.799049 L207.160659,268.799049 L207.313851,268.799049 L207.313851,268.799049 L207.461937,268.799049 L207.461937,268.799049 L207.615128,268.799049 L207.615128,268.799049 L207.763214,268.799049 L207.763214,268.799049 L207.926618,268.799049 L207.926618,268.799049 C218.798128,268.497944 228.612614,263.511844 235.245818,255.678002 L178.488266,208.3075 L178.488266,208.3075 Z" id="Fill-27" fill="#00B8AE"></path>
        <path d="M87.7578855,137.573267 C82.6157483,128.065484 70.9935991,124.146011 61.0310275,128.667694 C50.613987,133.490483 46.2429151,145.708214 50.9152642,155.966209 L72.5050913,202.7345 L105.72728,187.490405 L93.9417267,163.06515 L98.6242885,160.942102 L87.9059708,137.573267 L87.7578855,137.573267 L87.7578855,137.573267 Z" id="Fill-28" fill="#FBCF30"></path>
        <path d="M61.0310275,128.667694 C50.613987,133.490483 46.2429151,145.708214 50.9152642,155.966209 L59.37145,174.216254 L66.3212501,189.460348 C66.3212501,189.460348 72.2038142,185.530669 74.4761588,182.366511 C76.7382906,179.350354 77.3408449,176.339301 77.3408449,176.339301 L70.3910448,161.243207 C70.9935991,159.436575 70.5442366,155.517103 70.5442366,155.517103 C81.4106397,150.393209 86.5527769,138.175478 87.3034165,136.516847 C81.8651086,127.764378 70.5442366,124.299115 61.0310275,128.667694 L61.0310275,128.667694 Z" id="Fill-29" fill="#E81123"></path>
        <path d="M70.5442366,161.090103 C66.3212501,163.06515 64.3603954,168.035939 66.3212501,172.256517 C68.2821048,176.487302 73.255731,178.293934 77.4940367,176.339301 L70.5442366,161.090103 L70.5442366,161.090103 Z" id="Fill-30" fill="#FBCF30"></path>
        <path d="M84.4285176,154.761788 C84.1272405,154.159577 84.4285176,153.256261 85.0412847,152.955156 C85.6489454,152.802051 86.5527769,152.955156 86.7008622,153.705367 C87.0021394,154.312681 86.854054,155.062893 86.0983079,155.363998 C85.4957536,155.665104 84.7400075,155.363998 84.4285176,154.761788 L84.4285176,154.761788 Z" id="Fill-31" fill="#001F50"></path>
        <path d="M117.196238,215.554442 C117.196238,203.484711 105.574089,204.092026 105.574089,204.092026 L55.9042095,204.092026 C55.9042095,204.092026 44.4352522,203.484711 44.4352522,215.554442 L44.4352522,299.56793 L45.3390836,299.56793 L116.292406,299.56793 L117.196238,299.56793 L117.196238,215.554442 L117.196238,215.554442 Z" id="Fill-32" fill="#00BCF2"></path>
        <polygon id="Fill-33" fill="#00A9D9" points="44.4352522 243.909377 44.4352522 299.56793 45.3390836 299.56793 116.292406 299.56793 117.196238 299.56793 117.196238 293.076303"></polygon>
        <path d="M117.196238,273.621837 C117.196238,273.621837 61.934859,303.033193 44.4352522,259.291266 L44.4352522,225.200019 L71.902537,226.103335 L117.196238,273.621837 Z" id="Fill-34" fill="#00BCF2"></path>
        <polygon id="Fill-35" fill="#F1C40F" points="245.509667 38.9178945 245.509667 44.9553114 233.734326 38.9178945 233.734326 27.1492696"></polygon>
        <polygon id="Fill-36" fill="#F1C40F" points="251.402443 33.0386856 257.433093 33.0386856 251.402443 21.2751641 239.632209 21.2751641"></polygon>
        <path d="M213.053436,0.45296559 C213.053436,0.45296559 210.040665,21.2751641 245.509667,38.9178945 L251.402443,33.0386856 C233.734326,-2.4100867 213.053436,0.45296559 213.053436,0.45296559 L213.053436,0.45296559 Z" id="Fill-37" fill="#E81123"></path>
        <path d="M222.719837,14.4773287 C221.509622,13.2729074 221.509622,11.3131711 222.719837,10.2618542 C223.924946,9.05743291 225.732609,9.05743291 226.937717,10.2618542 C228.147932,11.3131711 228.147932,13.2729074 226.937717,14.4773287 C225.732609,15.6868535 223.924946,15.6868535 222.719837,14.4773287 L222.719837,14.4773287 Z" id="Fill-38" fill="#FFFFFF"></path>
        <polygon id="Fill-39" fill="#E81123" points="247.771798 31.0789492 243.548812 35.2995272 249.293503 40.8776309 253.51649 36.8050538"></polygon>
        <path d="M149.953745,295.648457 L149.953745,295.648457 C151.613323,295.648457 152.517154,296.102667 152.517154,296.102667 L163.838026,301.527666 L163.838026,301.527666 L152.670346,296.102667 C152.670346,296.102667 151.761408,295.648457 149.953745,295.648457 L149.953745,295.648457 Z" id="Fill-43" fill="#E5A600"></path>
        <path d="M131.683073,283.578727 L130.176687,280.251258 L125.039657,282.675411 L126.556255,285.992673 C127.010724,287.197094 128.067747,288.10041 129.420941,288.10041 C130.932433,288.10041 132.137542,286.742885 132.137542,285.237358 C132.137542,284.635147 131.98435,284.032937 131.683073,283.578727 L131.683073,283.578727 Z" id="Fill-46" fill="#BA141A"></path>
        <polygon id="Fill-47" fill="#E81123" points="107.83622 248.277956 124.738379 285.089357 132.137542 281.772095 115.22517 244.812693"></polygon>
        <path d="M117.196238,253.253849 C121.720501,251.294112 127.158809,253.253849 129.272856,257.938843 C131.233711,262.460527 129.272856,267.885526 124.585188,270.00347 C120.060924,271.963206 114.622616,270.00347 112.661761,265.323579 C110.547715,260.801896 112.50857,255.376896 117.196238,253.253849 L117.196238,253.253849 Z" id="Fill-48" fill="#FCD116"></path>
        <polygon id="Fill-49" fill="#FCD116" points="115.689852 273.922943 108.290689 257.336633 116.894961 253.40185 124.28391 270.156575"></polygon>
        <path d="M127.312001,90.3558697 C127.312001,80.2458758 135.451591,72.1058252 145.567354,72.1058252 C155.683117,72.1058252 163.838026,80.2458758 163.838026,90.3558697 C163.838026,100.46076 155.683117,108.600811 145.567354,108.600811 C135.451591,108.600811 127.312001,100.46076 127.312001,90.3558697 L127.312001,90.3558697 Z" id="Fill-50" fill="#FFFFFF"></path>
        <path d="M163.838026,90.0547644 L163.838026,90.2027653 L163.838026,90.0547644 L163.838026,90.0547644 Z" id="Fill-51" fill="#00B8AE"></path>
        <path d="M158.256739,77.3828235 L132.438819,103.022707 C135.752868,106.493074 140.292451,108.600811 145.266077,108.600811 L145.266077,108.600811 L145.419269,108.600811 L145.419269,108.600811 L145.567354,108.600811 C155.683117,108.600811 163.838026,100.46076 163.838026,90.3558697 L163.838026,90.3558697 C163.838026,90.3558697 163.838026,90.3558697 163.838026,90.2027653 L163.838026,90.2027653 L163.838026,90.2027653 L163.838026,90.0547644 L163.838026,90.0547644 L163.838026,90.0547644 L163.838026,89.90166 L163.838026,89.90166 L163.838026,89.7536591 L163.838026,89.7536591 C163.838026,89.7536591 163.838026,89.7536591 163.838026,89.6005547 L163.838026,89.6005547 L163.838026,89.6005547 L163.838026,89.6005547 L163.838026,89.4474503 L163.838026,89.4474503 C163.536749,84.6297651 161.575894,80.3938767 158.256739,77.3828235 L158.256739,77.3828235 Z" id="Fill-52" fill="#E1E1E1"></path>
        <path d="M74.6293506,170.143676 L77.4940367,176.339301 C77.4940367,176.487302 77.4940367,176.487302 77.3408449,176.487302 C77.1876532,176.941512 76.4370135,179.65146 74.4761588,182.366511 C72.2038142,185.530669 66.6225272,189.159243 66.4744419,189.460348 L72.5050913,202.7345 L105.72728,187.490405 L105.72728,187.490405 L74.6293506,170.143676 L74.6293506,170.143676 Z" id="Fill-53" fill="#EBB40E"></path>
        <path d="M51.5178185,157.323735 L66.4744419,189.460348 C66.6225272,189.159243 72.2038142,185.530669 74.4761588,182.366511 C76.4370135,179.65146 77.1876532,176.941512 77.3408449,176.487302 C76.2838217,176.941512 75.0787131,177.242617 74.0114771,177.242617 C70.8455138,177.242617 67.8276358,175.420675 66.3212501,172.256517 C65.4174186,169.995676 65.4174186,167.581729 66.3212501,165.473992 L51.5178185,157.323735 L51.5178185,157.323735 Z" id="Fill-54" fill="#D00F1F"></path>
        <path d="M66.3212501,165.473992 C65.4174186,167.581729 65.4174186,169.995676 66.3212501,172.256517 C67.8276358,175.420675 70.8455138,177.242617 74.0114771,177.242617 C75.0787131,177.242617 76.2838217,176.941512 77.3408449,176.487302 C77.4940367,176.487302 77.4940367,176.487302 77.4940367,176.339301 L74.6293506,170.143676 L74.6293506,170.143676 L75.6812674,172.557623 C75.2319049,172.858728 74.6293506,173.006729 74.0114771,173.006729 C72.3518995,173.006729 70.8455138,172.103413 70.0897677,170.449885 C69.6404052,169.541466 69.6404052,168.490149 69.9416823,167.581729 L66.3212501,165.473992 L66.3212501,165.473992 Z" id="Fill-55" fill="#EBB40E"></path>
        <path d="M72.2038142,164.871782 C70.9935991,165.473992 70.2429595,166.377308 69.9416823,167.581729 L74.6293506,170.143676 L72.2038142,164.871782 L72.2038142,164.871782 Z" id="Fill-56" fill="#EEA81D"></path>
        <path d="M69.9416823,167.581729 C69.6404052,168.490149 69.6404052,169.541466 70.0897677,170.449885 C70.8455138,172.103413 72.3518995,173.006729 74.0114771,173.006729 C74.6293506,173.006729 75.2319049,172.858728 75.6812674,172.557623 L74.6293506,170.143676 L69.9416823,167.581729 L69.9416823,167.581729 Z" id="Fill-57" fill="#D49008"></path>
    </g>
</svg>